<mxfile host="65bd71144e">
    <diagram id="NtlG_AYEtoJFGLm3GKB8" name="Page-1">
        <mxGraphModel dx="550" dy="454" grid="1" gridSize="10" guides="1" tooltips="1" connect="1" arrows="1" fold="1" page="1" pageScale="1" pageWidth="827" pageHeight="1169" math="0" shadow="0">
            <root>
                <mxCell id="0"/>
                <mxCell id="1" parent="0"/>
                <mxCell id="8" value="domain" style="text;html=1;strokeColor=#00FF00;fillColor=none;align=left;verticalAlign=bottom;whiteSpace=wrap;rounded=0;labelPosition=right;verticalLabelPosition=top;" vertex="1" parent="1">
                    <mxGeometry x="200" y="240" width="440" height="120" as="geometry"/>
                </mxCell>
                <mxCell id="2" value="camada" style="text;html=1;strokeColor=#00FF00;fillColor=none;align=center;verticalAlign=middle;whiteSpace=wrap;rounded=0;" vertex="1" parent="1">
                    <mxGeometry x="40" y="40" width="80" height="40" as="geometry"/>
                </mxCell>
                <mxCell id="3" value="interface" style="text;html=1;strokeColor=#F067DE;fillColor=none;align=center;verticalAlign=middle;whiteSpace=wrap;rounded=0;" vertex="1" parent="1">
                    <mxGeometry x="40" y="120" width="80" height="40" as="geometry"/>
                </mxCell>
                <mxCell id="4" value="classe" style="text;html=1;strokeColor=#007FFF;fillColor=none;align=center;verticalAlign=middle;whiteSpace=wrap;rounded=0;" vertex="1" parent="1">
                    <mxGeometry x="40" y="200" width="80" height="40" as="geometry"/>
                </mxCell>
                <mxCell id="5" value="infra" style="text;html=1;strokeColor=#00FF00;fillColor=none;align=left;verticalAlign=bottom;whiteSpace=wrap;rounded=0;labelPosition=right;verticalLabelPosition=top;" vertex="1" parent="1">
                    <mxGeometry x="280" y="80" width="360" height="120" as="geometry"/>
                </mxCell>
                <mxCell id="11" style="edgeStyle=none;html=1;" edge="1" parent="1" source="6" target="9">
                    <mxGeometry relative="1" as="geometry"/>
                </mxCell>
                <mxCell id="6" value="LoadLastEventRepo" style="text;html=1;strokeColor=#007FFF;fillColor=none;align=center;verticalAlign=middle;whiteSpace=wrap;rounded=0;" vertex="1" parent="1">
                    <mxGeometry x="400" y="120" width="130" height="40" as="geometry"/>
                </mxCell>
                <mxCell id="10" style="edgeStyle=none;html=1;entryX=0;entryY=0.5;entryDx=0;entryDy=0;" edge="1" parent="1" source="7" target="9">
                    <mxGeometry relative="1" as="geometry"/>
                </mxCell>
                <mxCell id="7" value="CheckLoadEventStatus" style="text;html=1;strokeColor=#007FFF;fillColor=none;align=center;verticalAlign=middle;whiteSpace=wrap;rounded=0;" vertex="1" parent="1">
                    <mxGeometry x="240" y="280" width="140" height="40" as="geometry"/>
                </mxCell>
                <mxCell id="9" value="LoadLastEventRepo" style="text;html=1;strokeColor=#F067DE;fillColor=none;align=center;verticalAlign=middle;whiteSpace=wrap;rounded=0;" vertex="1" parent="1">
                    <mxGeometry x="470" y="280" width="130" height="40" as="geometry"/>
                </mxCell>
                <mxCell id="12" value="externo" style="text;html=1;strokeColor=#FF3333;fillColor=none;align=center;verticalAlign=middle;whiteSpace=wrap;rounded=0;" vertex="1" parent="1">
                    <mxGeometry x="40" y="280" width="80" height="40" as="geometry"/>
                </mxCell>
            </root>
        </mxGraphModel>
    </diagram>
</mxfile>